<mxfile host="app.diagrams.net" modified="2024-06-22T14:53:56.924Z" agent="Mozilla/5.0 (Macintosh; Intel Mac OS X 10_15_7) AppleWebKit/537.36 (KHTML, like Gecko) Chrome/124.0.0.0 Safari/537.36" etag="vy54i395aWoyUhfxnpHA" version="24.6.2" type="github">
  <diagram name="Page-1" id="tYjtXV4hywBGQ4DnBRzR">
    <mxGraphModel dx="800" dy="823" grid="1" gridSize="10" guides="1" tooltips="1" connect="1" arrows="1" fold="1" page="1" pageScale="1" pageWidth="850" pageHeight="1100" math="0" shadow="0">
      <root>
        <mxCell id="0" />
        <mxCell id="1" parent="0" />
        <mxCell id="XPjptPiRNBGhCT6uHI0v-5" value="TC1" style="whiteSpace=wrap;html=1;aspect=fixed;" vertex="1" parent="1">
          <mxGeometry x="260" y="390" width="40" height="40" as="geometry" />
        </mxCell>
        <mxCell id="XPjptPiRNBGhCT6uHI0v-6" value="TC2" style="whiteSpace=wrap;html=1;aspect=fixed;" vertex="1" parent="1">
          <mxGeometry x="340" y="390" width="40" height="40" as="geometry" />
        </mxCell>
        <mxCell id="XPjptPiRNBGhCT6uHI0v-7" value="TC3" style="whiteSpace=wrap;html=1;aspect=fixed;" vertex="1" parent="1">
          <mxGeometry x="420" y="390" width="40" height="40" as="geometry" />
        </mxCell>
        <mxCell id="XPjptPiRNBGhCT6uHI0v-8" value="TC4" style="whiteSpace=wrap;html=1;aspect=fixed;" vertex="1" parent="1">
          <mxGeometry x="490" y="390" width="40" height="40" as="geometry" />
        </mxCell>
        <mxCell id="XPjptPiRNBGhCT6uHI0v-9" value="Render&lt;br&gt;Server" style="whiteSpace=wrap;html=1;aspect=fixed;" vertex="1" parent="1">
          <mxGeometry x="560" y="370" width="80" height="80" as="geometry" />
        </mxCell>
        <mxCell id="XPjptPiRNBGhCT6uHI0v-15" value="J1" style="whiteSpace=wrap;html=1;aspect=fixed;" vertex="1" parent="1">
          <mxGeometry x="280" y="120" width="40" height="40" as="geometry" />
        </mxCell>
        <mxCell id="XPjptPiRNBGhCT6uHI0v-16" value="H1" style="whiteSpace=wrap;html=1;aspect=fixed;" vertex="1" parent="1">
          <mxGeometry x="280" y="80" width="40" height="40" as="geometry" />
        </mxCell>
        <mxCell id="XPjptPiRNBGhCT6uHI0v-17" value="H1" style="whiteSpace=wrap;html=1;aspect=fixed;" vertex="1" parent="1">
          <mxGeometry x="200" y="200" width="40" height="40" as="geometry" />
        </mxCell>
        <mxCell id="XPjptPiRNBGhCT6uHI0v-18" value="G1" style="whiteSpace=wrap;html=1;aspect=fixed;" vertex="1" parent="1">
          <mxGeometry x="200" y="160" width="40" height="40" as="geometry" />
        </mxCell>
        <mxCell id="XPjptPiRNBGhCT6uHI0v-19" value="F1" style="whiteSpace=wrap;html=1;aspect=fixed;" vertex="1" parent="1">
          <mxGeometry x="200" y="120" width="40" height="40" as="geometry" />
        </mxCell>
        <mxCell id="XPjptPiRNBGhCT6uHI0v-20" value="E1" style="whiteSpace=wrap;html=1;aspect=fixed;" vertex="1" parent="1">
          <mxGeometry x="200" y="80" width="40" height="40" as="geometry" />
        </mxCell>
        <mxCell id="XPjptPiRNBGhCT6uHI0v-21" value="D1" style="whiteSpace=wrap;html=1;aspect=fixed;" vertex="1" parent="1">
          <mxGeometry x="120" y="200" width="40" height="40" as="geometry" />
        </mxCell>
        <mxCell id="XPjptPiRNBGhCT6uHI0v-22" value="C1" style="whiteSpace=wrap;html=1;aspect=fixed;" vertex="1" parent="1">
          <mxGeometry x="120" y="160" width="40" height="40" as="geometry" />
        </mxCell>
        <mxCell id="XPjptPiRNBGhCT6uHI0v-23" value="B1" style="whiteSpace=wrap;html=1;aspect=fixed;" vertex="1" parent="1">
          <mxGeometry x="120" y="120" width="40" height="40" as="geometry" />
        </mxCell>
        <mxCell id="XPjptPiRNBGhCT6uHI0v-24" value="A1" style="whiteSpace=wrap;html=1;aspect=fixed;" vertex="1" parent="1">
          <mxGeometry x="120" y="80" width="40" height="40" as="geometry" />
        </mxCell>
        <mxCell id="XPjptPiRNBGhCT6uHI0v-25" value="K1" style="whiteSpace=wrap;html=1;aspect=fixed;" vertex="1" parent="1">
          <mxGeometry x="280" y="160" width="40" height="40" as="geometry" />
        </mxCell>
        <mxCell id="XPjptPiRNBGhCT6uHI0v-26" value="L1" style="whiteSpace=wrap;html=1;aspect=fixed;" vertex="1" parent="1">
          <mxGeometry x="280" y="200" width="40" height="40" as="geometry" />
        </mxCell>
      </root>
    </mxGraphModel>
  </diagram>
</mxfile>
